<svg width="240" height="196" viewBox="0 0 240 196" fill="none" xmlns="http://www.w3.org/2000/svg">
<path fill-rule="evenodd" clip-rule="evenodd" d="M200.775 13.8866L205.834 20.5484C207.162 22.3066 206.83 24.8267 205.072 26.1552L199.7 30.2382C200.677 32.8364 201.302 35.6105 201.556 38.4432L207.67 39.2833C209.857 39.5763 211.381 41.608 211.088 43.796L209.955 52.0988C209.662 54.2868 207.631 55.8301 205.443 55.5176L198.763 54.5994C197.571 57.1977 196.048 59.581 194.251 61.7104L198.001 66.6335C199.329 68.3917 198.978 70.9118 197.22 72.2403L190.559 77.3001C188.801 78.6285 186.282 78.2769 184.954 76.5382L180.871 71.1658C178.254 72.1426 175.5 72.7677 172.648 73.0217L171.808 79.1364C171.515 81.3244 169.484 82.8482 167.296 82.5552L158.995 81.4221C156.807 81.1291 155.284 79.0974 155.577 76.9093L156.495 70.2281C153.917 69.0364 151.514 67.5126 149.385 65.7348L144.463 69.4662C142.705 70.7946 140.185 70.4625 138.857 68.7043L133.798 62.0425C132.47 60.2843 132.802 57.7642 134.56 56.4357L139.931 52.3528C138.955 49.7349 138.33 46.9804 138.076 44.1477L131.962 43.3076C129.775 43.0146 128.231 40.9829 128.544 38.7949L129.677 30.4921C129.989 28.3041 132.001 26.7803 134.189 27.0733L140.869 27.9915C142.06 25.4128 143.584 23.0099 145.361 20.8805L141.631 15.9574C140.302 14.2187 140.635 11.6986 142.392 10.3702L149.053 5.31039C150.811 3.98195 153.331 4.31406 154.659 6.07228L158.741 11.4446C161.339 10.4679 164.112 9.84271 166.945 9.58874L167.785 3.47401C168.078 1.286 170.109 -0.257337 172.297 0.0357011L180.598 1.16878C182.785 1.46182 184.328 3.49355 184.016 5.68157L183.098 12.3628C185.696 13.5545 188.079 15.0783 190.227 16.8756L195.149 13.1443C196.907 11.7963 199.427 12.1284 200.775 13.8866ZM57.954 131.121V98.8872H74.556C77.643 98.8872 79.986 99.1412 81.608 99.6882C83.229 100.216 84.557 101.192 85.534 102.619C86.53 104.064 87.038 105.803 87.038 107.854C87.038 109.632 86.647 111.195 85.885 112.484C85.123 113.793 84.069 114.848 82.741 115.649C81.901 116.157 80.729 116.587 79.244 116.919C80.436 117.329 81.295 117.7 81.822 118.11C82.194 118.384 82.721 118.951 83.405 119.81C84.088 120.67 84.557 121.353 84.791 121.822L89.635 131.141H78.385L73.072 121.314C72.388 120.045 71.802 119.205 71.275 118.833C70.552 118.345 69.732 118.091 68.833 118.091H67.954V131.141H57.954V131.121ZM93.073 187.248H74.478L71.802 196H55.044L75.025 142.882H92.995L112.899 196H95.71L93.073 187.248ZM89.596 175.741L83.795 156.635L77.975 175.741H89.596ZM116.766 142.882H144.072C150.03 142.882 154.483 144.289 157.432 147.121C160.382 149.954 161.866 153.998 161.866 159.214C161.866 164.586 160.245 168.787 157.022 171.815C153.799 174.843 148.858 176.347 142.236 176.347H133.232V196H116.766V142.882ZM133.232 165.583H137.275C140.459 165.583 142.705 165.036 143.994 163.922C145.283 162.828 145.928 161.402 145.928 159.702C145.928 158.042 145.361 156.616 144.248 155.463C143.135 154.31 141.025 153.724 137.939 153.724H133.232V165.583ZM168.507 142.882H184.973V196H168.507V142.882ZM67.954 111.976H72.154C72.603 111.976 73.482 111.82 74.791 111.527C75.455 111.39 76.002 111.058 76.412 110.511C76.842 109.964 77.037 109.339 77.037 108.636C77.037 107.6 76.705 106.78 76.041 106.233C75.377 105.666 74.146 105.393 72.33 105.393H67.954V111.976ZM91.55 98.8872H118.211V105.764H101.55V110.902H117V117.466H101.55V123.815H118.7V131.102H91.55V98.8872ZM121.063 120.455L130.517 119.869C130.712 121.412 131.142 122.565 131.767 123.366C132.802 124.655 134.267 125.319 136.162 125.319C137.568 125.319 138.681 124.987 139.443 124.323C140.205 123.659 140.595 122.877 140.595 121.998C140.595 121.158 140.224 120.416 139.502 119.752C138.779 119.087 137.08 118.482 134.404 117.876C130.048 116.899 126.942 115.59 125.067 113.969C123.192 112.347 122.255 110.277 122.255 107.756C122.255 106.096 122.743 104.533 123.7 103.068C124.657 101.603 126.102 100.431 128.036 99.5905C129.97 98.7504 132.607 98.3402 135.966 98.3402C140.088 98.3402 143.213 99.1021 145.381 100.645C147.529 102.189 148.819 104.611 149.229 107.971L139.873 108.538C139.619 107.073 139.091 105.998 138.31 105.354C137.509 104.689 136.396 104.357 135.009 104.357C133.857 104.357 132.978 104.611 132.392 105.1C131.806 105.588 131.513 106.194 131.513 106.897C131.513 107.405 131.767 107.854 132.236 108.284C132.704 108.694 133.798 109.104 135.556 109.476C139.912 110.413 143.037 111.371 144.912 112.328C146.787 113.285 148.174 114.477 149.014 115.903C149.873 117.31 150.303 118.911 150.303 120.67C150.303 122.74 149.737 124.635 148.584 126.374C147.451 128.113 145.85 129.441 143.799 130.34C141.748 131.239 139.17 131.688 136.044 131.688C130.575 131.688 126.767 130.633 124.657 128.523C122.548 126.374 121.356 123.698 121.063 120.455ZM151.748 98.8872H182.043V106.858H171.886V131.121H161.925V106.858H151.748V98.8872ZM118.231 22.3847C114.656 22.1112 111.043 22.1503 107.469 22.502C96.472 23.5569 85.788 27.5617 76.959 34.4188C66.743 42.3309 58.989 54.1696 56.001 69.8569L55.063 74.7604L50.18 75.62C45.395 76.46 41.117 77.6126 37.367 79.0778C33.734 80.4844 30.491 82.2231 27.659 84.2744C25.393 85.9154 23.44 87.7517 21.78 89.7444C16.643 95.8982 14.26 103.615 14.319 111.429C14.377 119.361 16.955 127.37 21.721 133.954C23.499 136.396 25.55 138.643 27.894 140.596C30.277 142.569 32.952 144.21 35.96 145.441C37.66 146.144 39.476 146.731 41.371 147.199V161.832C37.464 161.128 33.87 160.074 30.511 158.686C26.077 156.85 22.151 154.486 18.694 151.595C15.412 148.86 12.541 145.754 10.1 142.374C3.59499 133.388 0.078992 122.408 0.000991969 111.468C-0.077008 100.411 3.36099 89.4123 10.783 80.5039C13.186 77.6126 16.018 74.9558 19.26 72.6114C23.03 69.8764 27.347 67.5712 32.23 65.6762C35.589 64.3673 39.183 63.2733 42.973 62.3942C47.27 45.3198 56.43 32.1722 68.208 23.049C79.225 14.5118 92.487 9.53013 106.14 8.22123C113.309 7.53747 120.575 7.85005 127.685 9.17849C127.528 9.82317 127.392 10.4679 127.313 11.1321L127.294 11.2493C127.157 12.3628 127.099 13.4764 127.157 14.6095C125.653 15.1955 124.247 15.9965 122.977 16.9733L122.919 17.0124C121.024 18.4385 119.422 20.2749 118.231 22.3847ZM221.577 59.8936C222.671 60.8899 223.725 61.9253 224.761 63.0389C226.85 65.2855 228.823 67.8252 230.679 70.6579C236.929 80.2695 240.133 93.1046 239.996 105.666C239.859 117.993 236.539 130.262 229.741 139.287C225.307 145.168 219.624 149.973 212.807 153.783C208.138 156.401 202.884 158.569 197.161 160.328V145.187C200.247 144.035 203.119 142.745 205.756 141.28C210.893 138.408 215.092 134.911 218.237 130.711C223.12 124.206 225.522 115.004 225.62 105.568C225.737 95.6638 223.315 85.72 218.608 78.4918C217.26 76.4014 215.776 74.526 214.213 72.8459C213.608 72.2012 213.002 71.5956 212.377 71.0095C212.475 70.0327 212.514 69.0364 212.455 68.0401C213.959 67.454 215.365 66.653 216.635 65.6762L216.694 65.6371C218.705 64.0938 220.385 62.1402 221.577 59.8936ZM172.043 25.0025C181.047 26.2333 187.336 34.536 186.106 43.5421C184.875 52.5481 176.574 58.8582 167.57 57.6274C158.565 56.3967 152.256 48.0939 153.506 39.0879C154.756 30.0819 163.038 23.7718 172.043 25.0025Z" fill="#01B5E6"/>
</svg>
