<svg width="30" height="30" viewBox="0 0 30 30" fill="none" xmlns="http://www.w3.org/2000/svg">
<path d="M7.13082 19.9591C10.2464 20.1709 10.9122 20.0941 10.9122 20.7231C10.9122 22.0028 6.70745 22.0067 6.70745 20.8204C6.7081 20.4947 6.9185 20.2189 7.13082 19.9591ZM8.92371 12.4958C6.85243 12.4958 6.75877 15.3412 8.8756 15.3412C10.961 15.3412 10.9097 12.4958 8.92371 12.4958ZM29.4159 3.69132V26.2144C29.4159 27.0289 29.0915 27.8101 28.5141 28.3861C27.9366 28.9621 27.1535 29.2857 26.3369 29.2857H3.75737C2.94076 29.2857 2.1576 28.9621 1.58017 28.3861C1.00274 27.8101 0.678345 27.0289 0.678345 26.2144L0.678345 3.69132C0.678345 2.87675 1.00274 2.09555 1.58017 1.51957C2.1576 0.94358 2.94076 0.619995 3.75737 0.619995H26.3369C27.1535 0.619995 27.9366 0.94358 28.5141 1.51957C29.0915 2.09555 29.4159 2.87675 29.4159 3.69132ZM14.8547 8.12618C14.8547 9.05334 15.3922 9.59018 16.3211 9.59018C17.2666 9.59018 17.8048 9.05334 17.8048 8.12618C17.8048 7.19903 17.2679 6.69866 16.3223 6.69866C15.3935 6.69866 14.8547 7.20031 14.8547 8.12618ZM13.455 11.0497H10.2766C8.6729 10.6306 5.04478 10.7394 5.04478 14.041C5.04478 15.244 5.64776 16.0886 6.44638 16.4795C5.43992 17.399 4.96332 17.8322 4.96332 18.4465C4.96332 18.8861 5.14229 19.2924 5.68047 19.5189C5.10957 20.0564 4.78242 20.4454 4.78242 21.1774C4.78371 22.4616 5.90819 23.207 8.85828 23.207C11.6948 23.207 13.3402 22.1506 13.3402 20.281C13.3402 17.9346 11.5293 18.021 7.26104 17.7612L7.79858 16.9019C8.88907 17.2051 12.5576 17.3005 12.5576 14.1869C12.5576 13.4389 12.2478 12.9187 11.9546 12.5444L13.4544 12.4305L13.455 11.0497ZM18.8651 18.0779L18.0312 17.964C17.7862 17.9314 17.7701 17.9 17.7701 17.6383V10.891H14.396L14.2171 12.2072C15.2274 12.5623 15.3075 12.5182 15.3075 12.8579V17.6403C15.3075 17.9999 15.2877 17.9333 14.2171 18.0798V19.3634H18.8625L18.8651 18.0779ZM25.3105 18.728L24.8698 17.2966C22.2443 18.2801 22.4419 16.5026 22.4419 16.2262V12.3409H24.8698V10.7151H22.5721C22.388 10.7151 22.4438 10.8763 22.4438 8.24328H20.8928C20.7138 10.0157 20.1435 10.7311 18.7118 10.8936V12.3409C20.0249 12.3409 19.9832 12.2865 19.9832 12.5035V16.763C19.9832 18.6007 20.7164 19.3807 22.6561 19.3807C23.5831 19.3807 24.6094 19.0716 25.3105 18.728Z" fill="black"/>
</svg>
