<svg width="48" height="30" viewBox="0 0 48 30" fill="none" xmlns="http://www.w3.org/2000/svg">
<path d="M11.04 11.6682C12.5729 11.6682 13.8155 10.4319 13.8155 8.90685C13.8155 7.3818 12.5729 6.14551 11.04 6.14551C9.50716 6.14551 8.26453 7.3818 8.26453 8.90685C8.26453 10.4319 9.50716 11.6682 11.04 11.6682Z" fill="#00E7C3"/>
<path d="M12.6556 12.3034C13.4081 13.6768 14.6516 14.217 15.9432 14.217C18.0157 14.217 20.5546 10.7508 22.1806 7.9451C24.2853 4.31075 26.623 0.619995 30.007 0.619995C32.594 0.619995 35.181 2.21802 36.2567 5.37734C35.8023 5.19479 35.3168 5.10143 34.8268 5.10239C34.2652 5.10162 33.7104 5.22443 33.2021 5.46202C32.4668 3.91426 31.1593 3.3141 29.796 3.3141C27.7223 3.3141 25.7927 5.83639 23.6031 9.47184C21.2529 13.3725 19.1162 16.911 15.7311 16.911C13.2365 16.911 10.7421 15.4247 9.60339 12.4864C9.61699 12.4901 9.63553 12.4937 9.65777 12.4962C10.0663 12.6396 10.4964 12.7126 10.9296 12.7121C11.5501 12.7121 12.1374 12.5649 12.6556 12.3034Z" fill="#00E7C3"/>
<path d="M9.78601 5.27544C10.8728 2.18373 13.4117 0.619995 15.9505 0.619995C19.3086 0.619995 21.5205 4.00508 24.0212 7.37186C25.9038 9.90877 28.0157 13.2743 30.0735 13.2743C31.3208 13.2743 31.6921 13.0189 32.6001 12.0015C33.2492 12.4644 34.0281 12.713 34.8269 12.7121C35.2734 12.7121 35.7027 12.6359 36.1024 12.4961C36.1419 12.4948 36.1728 12.4924 36.1938 12.4862C35.0624 15.4247 32.2842 17.0448 29.8094 17.0448C26.4515 17.0448 24.1951 13.7088 21.8302 10.3813C19.3764 6.92755 17.5396 4.3255 15.483 4.2568C14.5516 4.22607 13.6967 4.78824 13.0292 5.72713C12.4061 5.31854 11.6759 5.10128 10.9295 5.10239C10.5311 5.10239 10.1475 5.16262 9.78601 5.27544Z" fill="#00E7C3"/>
<path d="M34.8262 11.6682C36.359 11.6682 37.6016 10.4319 37.6016 8.90685C37.6016 7.3818 36.359 6.14551 34.8262 6.14551C33.2933 6.14551 32.0507 7.3818 32.0507 8.90685C32.0507 10.4319 33.2933 11.6682 34.8262 11.6682Z" fill="#00E7C3"/>
<path d="M35.041 25.4245L35.1276 25.7077C35.4494 26.7543 36.1796 27.296 37.3552 27.3699C37.974 27.4068 38.2463 27.3699 38.7041 27.1483C39.0135 27.0006 39.6147 26.4514 39.6147 26.4514L41.2534 27.5546L40.7832 28.0348C40.5233 28.2933 40.0035 28.6628 39.6323 28.8474C38.7444 29.289 36.952 29.4496 35.8577 29.0814C35.0535 28.8105 34.5831 28.5273 34.0509 27.9733C33.1475 27.0497 32.7516 25.8802 32.8506 24.3903C33.0238 21.6694 35.3132 19.8718 38.1226 20.2657C39.9788 20.5243 41.1421 21.7555 41.4763 23.8239C41.5504 24.2673 41.6123 24.8089 41.6123 25.0306V25.4245H35.041ZM18.7179 20.3765H20.8217V21.657L21.2549 21.1522C21.7994 20.512 22.5171 20.2288 23.5443 20.2165C24.5343 20.2165 25.1035 20.4627 25.71 21.1399L26.1555 21.6324L26.5886 21.1892C27.2817 20.4874 27.9004 20.2288 28.9153 20.2288C30.0414 20.2288 30.7097 20.4997 31.316 21.1769C32.071 22.0264 32.1205 22.2973 32.17 25.8309L32.2194 28.9951H30.0043L29.9548 26.2002C29.9176 23.7871 29.8804 23.3316 29.6825 22.9252C29.1009 21.7432 27.5044 21.8663 26.8362 23.1468C26.601 23.59 26.5763 23.8855 26.5391 26.3234L26.4897 28.9951H24.2868V26.2002C24.2868 23.7378 24.2497 23.3316 24.0517 22.8882C23.7794 22.2849 23.272 22.0387 22.5171 22.1373C21.886 22.2233 21.2796 22.8144 21.0816 23.5409C21.0074 23.7994 20.9454 25.1168 20.9454 26.5081V28.9951H18.7179V20.3765ZM2.8772 28.9951H0.64983V20.3765H2.8772V28.9951ZM42.3547 20.3765H44.4586V21.7924L44.768 21.3369C45.1392 20.7829 45.9313 20.315 46.6489 20.2042C47.1301 20.1349 47.551 20.1643 47.551 20.1643L47.5524 22.2453L47.0079 22.248C45.9065 22.1619 44.9908 22.7774 44.7185 23.7871C44.6442 24.0457 44.5823 25.3261 44.5823 26.6311V28.9951H42.3547V20.3765ZM4.11477 20.3765H6.21855V21.657L6.65172 21.1522C7.19623 20.512 7.91401 20.2288 8.94112 20.2165C9.93116 20.2165 10.5005 20.4627 11.1068 21.1399L11.5523 21.6324L11.9855 21.1892C12.6786 20.4874 13.2974 20.2288 14.3121 20.2288C15.4382 20.2288 16.1066 20.4997 16.713 21.1769C17.4678 22.0264 17.5173 22.2973 17.5668 25.8309L17.6163 28.9951H15.4013L15.3518 26.2002C15.3146 23.7871 15.2776 23.3316 15.0795 22.9252C14.4979 21.7432 12.9014 21.8663 12.2332 23.1468C11.998 23.59 11.9733 23.8855 11.9362 26.3234L11.8868 28.9951H9.68387V26.2002C9.68387 23.7378 9.64679 23.3316 9.44869 22.8882C9.17643 22.2849 8.66899 22.0387 7.91414 22.1373C7.28299 22.2233 6.67656 22.8144 6.47858 23.5409C6.40443 23.7994 6.34251 25.1168 6.34251 26.5081V28.9951H4.1149L4.11477 20.3765ZM39.261 23.4916C39.261 23.0114 38.8526 22.3958 38.37 22.1495C37.1818 21.5215 35.5112 22.2357 35.1151 23.553L35.041 23.8239H39.2609V23.4916H39.261ZM1.80584 16.0963C2.59468 16.0963 3.23497 16.7335 3.23497 17.5181C3.23497 18.3029 2.5948 18.94 1.80584 18.94C1.01725 18.94 0.376831 18.3029 0.376831 17.5181C0.376831 16.7335 1.01725 16.0963 1.80584 16.0963Z" fill="black"/>
</svg>
