<svg width="30" height="30" viewBox="0 0 30 30" fill="none" xmlns="http://www.w3.org/2000/svg">
<path d="M15.1235 29.2857C23.0592 29.2857 29.4923 22.8687 29.4923 14.9528C29.4923 7.03703 23.0592 0.619995 15.1235 0.619995C7.18788 0.619995 0.754761 7.03703 0.754761 14.9528C0.754761 22.8687 7.18788 29.2857 15.1235 29.2857Z" fill="#13AA52"/>
<path d="M18.9643 13.196C18.0567 9.2004 15.9118 7.88665 15.6808 7.38472C15.4283 7.0306 15.1723 6.40074 15.1723 6.40074C15.1681 6.3901 15.1614 6.37135 15.1535 6.35315C15.1274 6.70727 15.1139 6.84388 14.7783 7.20108C14.2586 7.60643 11.5919 9.83838 11.375 14.3779C11.1726 18.6117 14.441 21.1345 14.883 21.4561L14.9332 21.4917V21.4886C14.936 21.5099 15.0735 22.4964 15.1701 23.5417H15.5164C15.5976 22.8028 15.7194 22.0689 15.8812 21.3433L15.9093 21.3251C16.107 21.1837 16.2955 21.0299 16.4736 20.8646L16.4939 20.8464C17.4334 19.9806 19.1226 17.9779 19.106 14.7849C19.1026 14.2523 19.0552 13.7208 18.9643 13.196ZM15.1333 19.0657C15.1333 19.0657 15.1333 13.1277 15.3298 13.1288C15.483 13.1288 15.6814 20.7882 15.6814 20.7882C15.4086 20.7554 15.1333 19.5276 15.1333 19.0657Z" fill="white"/>
</svg>
