<svg width="32" height="30" viewBox="0 0 32 30" fill="none" xmlns="http://www.w3.org/2000/svg">
<path d="M25.3757 9.90946C25.048 9.79429 24.7204 9.68552 24.3927 9.58315C24.4473 9.34641 24.4958 9.10967 24.5444 8.87294C25.2907 5.05958 24.7992 1.99482 23.1427 0.983895C21.5468 0.0177593 18.9437 1.02228 16.3103 3.44082C16.0493 3.67756 15.7945 3.92709 15.5518 4.17662C15.3879 4.01027 15.218 3.84391 15.0481 3.68396C12.2872 1.09906 9.52028 0.0113612 7.86375 1.02868C6.27396 2.00122 5.80066 4.88683 6.46813 8.49544C6.53488 8.85375 6.60769 9.20565 6.69264 9.56395C6.3043 9.67912 5.92202 9.80708 5.56401 9.94145C2.32376 11.1251 -0.000244141 12.9934 -0.000244141 14.9257C-0.000244141 16.9219 2.47546 18.9246 5.84314 20.1403C6.11619 20.2362 6.38925 20.3322 6.66837 20.4154C6.57735 20.7993 6.49847 21.1768 6.42565 21.5671C5.78853 25.1181 6.28609 27.9333 7.87588 28.8995C9.51421 29.8976 12.269 28.8739 14.951 26.3978C15.1634 26.1994 15.3758 25.9947 15.5882 25.7771C15.8552 26.0522 16.1343 26.3146 16.4134 26.5705C19.0105 28.9251 21.5772 29.8784 23.1609 28.9123C24.7992 27.9141 25.3332 24.8878 24.6415 21.2024C24.5869 20.9208 24.5262 20.6329 24.4594 20.3386C24.6536 20.281 24.8417 20.217 25.0298 20.1531C28.531 18.931 31.0674 16.9539 31.0674 14.9257C31.0674 12.987 28.6766 11.1059 25.3757 9.90946ZM17.1658 4.47734C19.4231 2.40431 21.5286 1.59173 22.4874 2.17397C23.5128 2.7946 23.9073 5.30271 23.2641 8.59781C23.2216 8.81536 23.1791 9.0265 23.1245 9.23764C21.7774 8.91773 20.4121 8.68739 19.0408 8.55943C18.252 7.36935 17.3903 6.23046 16.4559 5.16195C16.6925 4.92522 16.9231 4.70128 17.1658 4.47734ZM10.1453 18.2464C10.4547 18.803 10.7703 19.3597 11.104 19.9035C10.1574 19.7948 9.21689 19.6348 8.2885 19.4237C8.55549 18.5023 8.88922 17.549 9.27756 16.5764C9.55669 17.1395 9.84188 17.6961 10.1453 18.2464ZM8.3067 10.5493C9.18048 10.3445 10.1089 10.1782 11.0737 10.0502C10.7521 10.5813 10.4365 11.1251 10.1392 11.6754C9.84188 12.2192 9.55062 12.7759 9.27756 13.3389C8.89529 12.3856 8.57369 11.4514 8.3067 10.5493ZM9.96931 14.9577C10.3698 14.0747 10.8067 13.211 11.2678 12.36C11.729 11.509 12.2266 10.6836 12.7484 9.87107C13.6586 9.80069 14.587 9.7623 15.5336 9.7623C16.4802 9.7623 17.4146 9.80069 18.3187 9.87107C18.8345 10.6772 19.326 11.5026 19.7932 12.3472C20.2605 13.1918 20.6973 14.0555 21.11 14.9321C20.7034 15.815 20.2665 16.6852 19.7993 17.5426C19.3381 18.3935 18.8466 19.2189 18.3309 20.0379C17.4267 20.1083 16.4862 20.1403 15.5336 20.1403C14.5809 20.1403 13.6586 20.1083 12.7666 20.0507C12.2387 19.2381 11.7411 18.4063 11.2739 17.5554C10.8067 16.7044 10.3759 15.8406 9.96931 14.9577ZM20.9279 18.2336C21.2374 17.6705 21.5286 17.1011 21.8138 16.5252C22.2022 17.453 22.542 18.3935 22.8393 19.3597C21.8988 19.5836 20.9461 19.7564 19.9874 19.8715C20.3151 19.3341 20.6245 18.7838 20.9279 18.2336ZM21.8017 13.3389C21.5165 12.7759 21.2252 12.2128 20.9219 11.6626C20.6245 11.1187 20.3151 10.5813 19.9935 10.0502C20.9704 10.1782 21.9049 10.3509 22.7786 10.5621C22.4995 11.509 22.1718 12.4304 21.8017 13.3389ZM15.5457 6.14089C16.1828 6.87029 16.7835 7.63808 17.3418 8.43146C16.1404 8.37388 14.9328 8.37388 13.7314 8.43146C14.3261 7.60609 14.9389 6.8383 15.5457 6.14089ZM8.50694 2.21876C9.52635 1.59173 11.7897 2.48748 14.1744 4.71408C14.3261 4.85484 14.4777 5.0084 14.6355 5.16195C13.695 6.23046 12.8273 7.36935 12.0324 8.55943C10.661 8.68739 9.30184 8.91133 7.95476 9.22484C7.87588 8.89853 7.80913 8.56582 7.74239 8.23311C7.17201 5.13636 7.54821 2.801 8.50694 2.21876ZM7.02031 19.0845C6.76546 19.0078 6.51667 18.9246 6.26789 18.835C4.97543 18.4063 3.507 17.7281 2.44512 16.8388C1.83226 16.3909 1.41964 15.6999 1.30435 14.9257C1.30435 13.7548 3.22181 12.2576 5.98877 11.2403C6.33464 11.1123 6.68657 10.9972 7.03851 10.8884C7.45113 12.2768 7.9487 13.6396 8.52515 14.9577C7.94263 16.2949 7.43899 17.6769 7.02031 19.0845ZM14.0955 25.3548C13.0943 26.321 11.9353 27.0888 10.6732 27.6134C9.99964 27.9525 9.22295 27.9845 8.53121 27.6966C7.56642 27.108 7.16594 24.8494 7.71205 21.8102C7.77879 21.4519 7.85161 21.0936 7.93656 20.7417C9.29577 21.0488 10.6671 21.26 12.0567 21.3687C12.8576 22.5652 13.7375 23.7105 14.678 24.7854C14.4838 24.9837 14.2896 25.1757 14.0955 25.3548ZM15.5821 23.8001C14.9632 23.0963 14.3443 22.3157 13.7435 21.4775C14.3261 21.5031 14.9268 21.5159 15.5336 21.5159C16.1586 21.5159 16.7714 21.5031 17.3782 21.4711C16.82 22.2837 16.2192 23.0579 15.5821 23.8001ZM23.5128 25.7195C23.4582 26.5001 23.0942 27.2295 22.5116 27.7222C21.5468 28.3108 19.4898 27.543 17.269 25.534C17.0141 25.3036 16.7593 25.0541 16.4984 24.7982C17.4267 23.7169 18.2823 22.5716 19.059 21.3687C20.4486 21.2472 21.832 21.0232 23.1973 20.6969C23.258 20.9592 23.3126 21.2216 23.3611 21.4775C23.6585 22.8595 23.707 24.2991 23.5128 25.7195ZM24.6172 18.8414C24.4473 18.899 24.2774 18.9566 24.1014 19.0078C23.6767 17.613 23.1548 16.2501 22.5541 14.9257C23.1366 13.6204 23.6281 12.2768 24.0408 10.9012C24.3563 10.9972 24.6597 11.0995 24.9509 11.2019C27.7786 12.2256 29.7628 13.7484 29.7628 14.9129C29.7628 16.1669 27.6451 17.7857 24.6172 18.8414ZM15.5336 17.8817C17.0687 17.8817 18.3127 16.57 18.3127 14.9513C18.3127 13.3325 17.0687 12.0209 15.5336 12.0209C13.9984 12.0209 12.7545 13.3325 12.7545 14.9513C12.7545 16.57 13.9984 17.8817 15.5336 17.8817Z" fill="#00AAE0"/>
</svg>
