<svg width="133" height="98" viewBox="0 0 133 98" fill="none" xmlns="http://www.w3.org/2000/svg">
<path d="M62.7261 74.0893C62.6638 74.2118 62.6014 74.3097 62.7261 74.0893ZM114.499 56.3282C110.319 56.3269 106.195 57.2699 102.446 59.0842C101.22 56.6549 99.952 54.5317 99.7442 52.9393C99.4948 51.0816 99.2246 49.9791 99.5156 47.7743C99.8065 45.5695 101.116 42.446 101.095 42.2214C101.074 41.9969 100.804 40.8741 98.1232 40.8536C95.4424 40.8332 93.1357 41.364 92.8676 42.0581C92.3941 43.3266 92.0258 44.6306 91.7662 45.9574C91.2882 48.3459 86.4066 56.8794 83.6427 61.3299C82.7283 59.5946 81.9594 58.0635 81.7931 56.8386C81.5438 54.9808 81.2736 53.8784 81.5645 51.6736C81.8555 49.4688 83.1647 46.3453 83.1439 46.1207C83.1231 45.8961 82.853 44.7733 80.1743 44.7529C77.4955 44.7325 75.1867 45.2633 74.9165 45.9574C74.6464 46.6515 74.3554 48.2847 73.8151 49.8567C73.2748 51.4286 66.7723 65.6374 65.0703 69.3326C64.1974 71.2107 63.4493 72.7215 62.909 73.7422C62.8259 73.9055 62.7635 74.0076 62.722 74.0893C62.7843 73.9872 62.8259 73.8851 62.8259 73.9259C62.3687 74.8038 62.0985 75.2937 62.0985 75.2937V75.3142C61.7452 75.9674 61.3504 76.5595 61.1633 76.5595C61.0387 76.5595 60.7685 74.8446 61.2257 72.4969C62.2024 67.5565 64.5092 59.8804 64.4884 59.615C64.4676 59.4721 64.9248 58.1451 62.9713 57.4306C61.0802 56.7569 60.3944 57.8797 60.2282 57.8797C60.0619 57.8797 59.9372 58.288 59.9372 58.288C59.9372 58.288 62.0362 49.6321 55.9077 49.6321C52.0839 49.6321 46.7638 53.7559 44.1495 57.4919C42.5078 58.3697 38.9542 60.2683 35.2135 62.2894C33.7796 63.0652 32.3041 63.8613 30.9117 64.6167C30.8078 64.5146 30.7247 64.4125 30.6208 64.3105C23.1831 56.5119 9.45068 50.9999 10.0326 40.527C10.2404 36.7094 11.5912 26.6856 36.4396 14.5183C56.8055 4.55576 73.0878 7.29137 75.8912 13.375C79.9228 22.0514 67.1858 38.1997 46.0365 40.527C37.9754 41.4048 33.738 38.3426 32.6782 37.1994C31.5767 35.9949 31.4105 35.9336 30.9949 36.1582C30.3091 36.5257 30.7455 37.5872 30.9949 38.2201C31.6183 39.8329 34.216 42.691 38.6404 44.12C42.5265 45.3654 51.9779 46.0595 63.4057 41.7111C76.2445 36.8523 86.2383 23.3171 83.3081 11.9868C80.3239 0.472762 60.889 -3.30401 42.512 3.1063C31.5622 6.9239 19.7209 12.9259 11.2026 20.7449C1.08405 30.0541 -0.534825 38.1589 0.130183 41.5477C2.49719 53.5722 19.3676 61.4115 26.1195 67.2094C25.787 67.3931 25.4753 67.5565 25.1843 67.7198C21.799 69.3734 8.93738 75.9879 5.71833 82.9698C2.08157 90.8908 6.32099 96.5662 9.10363 97.3419C17.7882 99.7101 26.6806 95.4434 31.4583 88.441C36.2359 81.4387 35.6561 72.2927 33.4533 68.1281C33.4325 68.0668 33.391 68.026 33.3702 67.9648C34.243 67.4544 35.1366 66.944 36.0302 66.4336C37.753 65.4333 39.4363 64.5146 40.9118 63.7184C40.0805 65.9233 39.4779 68.5772 39.1661 72.4152C38.7921 76.9065 40.6832 82.7248 43.1354 85.0113C44.216 86.0116 45.5232 86.032 46.3337 86.032C49.2015 86.032 50.49 83.7047 51.9218 80.9283C53.6882 77.5394 55.2469 73.5993 55.2469 73.5993C55.2469 73.5993 53.2934 84.2559 58.6342 84.2559C60.5856 84.2559 62.5391 81.7857 63.414 80.52V80.5404C63.414 80.5404 63.4555 80.4587 63.5595 80.2954C63.7673 79.9892 63.8712 79.8055 63.8712 79.8055V79.7442C64.6609 78.4172 66.3857 75.3754 68.9813 70.3533C72.3479 63.8613 75.567 55.7566 75.567 55.7566C75.8781 57.5382 76.3085 59.2977 76.8554 61.0237C77.4373 62.9631 78.6634 65.0862 79.6402 67.1482C78.8505 68.2097 78.3725 68.8222 78.3725 68.8222C78.374 68.8379 78.3814 68.8524 78.3933 68.863C77.7698 69.6796 77.0633 70.5575 76.3359 71.4149C73.678 74.518 70.5171 78.0702 70.1015 79.0909C69.6027 80.2954 69.7274 81.1937 70.6833 81.8878C71.3899 82.4186 72.6368 82.5002 73.944 82.3982C76.3338 82.2348 78.0171 81.6632 78.8276 81.2958C80.3218 80.7694 81.7339 80.0411 83.0234 79.1318C85.6211 77.2536 87.2005 74.5588 87.055 71.0066C86.9719 69.0468 86.3276 67.0869 85.538 65.2496C85.7665 64.9229 86.0159 64.5759 86.2445 64.2288C90.3572 58.3289 93.5368 51.8532 93.5368 51.8532C93.8478 53.6349 94.2782 55.3944 94.8252 57.1203C95.324 58.7739 96.2986 60.5909 97.1922 62.367C93.3289 65.4496 90.9391 69.0223 90.1078 71.37C88.57 75.7184 89.7753 77.6782 92.0405 78.1273C93.0588 78.3315 94.5135 77.862 95.5941 77.4128C97.199 76.8877 98.7122 76.1234 100.081 75.1468C102.679 73.2686 105.191 70.635 105.025 67.0624C104.962 65.4496 104.505 63.8368 103.903 62.2853C107.165 60.9379 111.403 60.203 116.806 60.8154C128.377 62.1424 130.642 69.2468 130.206 72.207C129.769 75.1672 127.338 76.8208 126.527 77.3107C125.717 77.8007 125.468 77.9844 125.53 78.3519C125.634 78.8827 126.008 78.8623 126.694 78.7398C127.65 78.5765 132.76 76.3308 132.988 70.8392C133.321 63.8981 126.527 56.2629 114.493 56.3241L114.499 56.3282ZM25.309 85.8687C21.4873 89.9721 16.1257 91.5237 13.821 90.2171C11.348 88.8044 12.3248 82.7656 17.0401 78.3927C19.9079 75.7388 23.605 73.289 26.0572 71.7783C26.6183 71.4516 27.4287 70.9617 28.4263 70.3696C28.5925 70.2676 28.6756 70.2267 28.6756 70.2267C28.8627 70.1043 29.0705 70.0022 29.2783 69.8797C31.0011 76.0858 29.3406 81.5571 25.309 85.8646V85.8687ZM53.231 67.2094C51.901 70.4146 49.0976 78.5806 47.3935 78.1518C45.9388 77.7844 45.0452 71.5578 47.1026 65.4333C48.1417 62.3506 50.3445 58.6759 51.6537 57.2469C53.7506 54.94 56.0573 54.205 56.5977 55.1237C57.325 56.3282 54.0623 65.2087 53.231 67.2094ZM76.2985 78.0294C75.7374 78.3152 75.2179 78.4989 74.9685 78.356C74.7815 78.2539 75.1971 77.866 75.1971 77.866C75.1971 77.866 78.0857 74.8242 79.2287 73.436C79.8937 72.6194 80.6626 71.6599 81.4918 70.5983C81.4918 70.7004 81.5126 70.8024 81.5126 70.9249C81.4856 74.5792 77.9132 77.0494 76.2923 78.0294H76.2985ZM94.0833 74.0484C93.6677 73.7626 93.73 72.8031 95.1224 69.8225C95.6627 68.6589 96.9075 66.699 99.0709 64.8208C99.3158 65.5318 99.4489 66.2753 99.4657 67.0257C99.4449 71.619 96.0991 73.3339 94.0854 74.0484H94.0833Z" fill="#C14E9A"/>
</svg>
