<svg width="242" height="278" viewBox="0 0 242 278" fill="none" xmlns="http://www.w3.org/2000/svg">
<path d="M107.54 76.34C164.171 76.34 210.08 60.37 210.08 40.67C210.08 20.97 164.171 5 107.54 5C50.9087 5 5 20.97 5 40.67C5 60.37 50.9087 76.34 107.54 76.34Z" stroke="#1B3668" stroke-width="9.91" stroke-linecap="round" stroke-linejoin="round"/>
<path d="M210.09 145.44V40.67M5 40.67V201.17C5 220.34 48.69 235.94 103.53 236.83" stroke="#1B3668" stroke-width="9.91" stroke-linecap="round" stroke-linejoin="round"/>
<path d="M210.09 94.17C210.09 113.78 164.17 129.83 107.54 129.83C50.91 129.83 5 113.75 5 94.17M96.4 182.89C45.13 181.1 5 165.95 5 147.67" stroke="#1B3668" stroke-width="9.91" stroke-linecap="round" stroke-linejoin="round"/>
<path d="M165.5 272.5C204.894 272.5 236.83 240.564 236.83 201.17C236.83 161.776 204.894 129.84 165.5 129.84C126.105 129.84 94.17 161.776 94.17 201.17C94.17 240.564 126.105 272.5 165.5 272.5Z" stroke="#186CDA" stroke-width="9.91" stroke-linecap="round" stroke-linejoin="round"/>
<path d="M146.29 187.448C146.062 185.523 145.137 184.028 143.516 182.965C141.895 181.901 139.907 181.369 137.551 181.369C135.828 181.369 134.321 181.647 133.029 182.205C131.75 182.762 130.749 183.528 130.027 184.503C129.318 185.479 128.963 186.587 128.963 187.828C128.963 188.867 129.21 189.76 129.704 190.507C130.211 191.242 130.857 191.856 131.642 192.35C132.427 192.831 133.251 193.23 134.112 193.547C134.973 193.851 135.765 194.098 136.487 194.288L140.438 195.352C141.452 195.618 142.579 195.985 143.82 196.454C145.074 196.922 146.271 197.562 147.411 198.372C148.564 199.17 149.513 200.196 150.261 201.45C151.008 202.704 151.382 204.243 151.382 206.067C151.382 208.169 150.831 210.069 149.729 211.766C148.64 213.464 147.044 214.812 144.941 215.813C142.851 216.814 140.312 217.314 137.323 217.314C134.536 217.314 132.123 216.864 130.084 215.965C128.058 215.066 126.462 213.812 125.297 212.203C124.144 210.595 123.492 208.727 123.34 206.599H128.203C128.33 208.068 128.824 209.284 129.685 210.246C130.559 211.196 131.661 211.906 132.991 212.374C134.334 212.83 135.777 213.058 137.323 213.058C139.121 213.058 140.736 212.767 142.167 212.184C143.599 211.589 144.732 210.766 145.568 209.715C146.404 208.651 146.822 207.409 146.822 205.991C146.822 204.699 146.461 203.648 145.739 202.837C145.017 202.026 144.067 201.368 142.889 200.861C141.711 200.355 140.438 199.911 139.071 199.531L134.283 198.163C131.243 197.289 128.837 196.042 127.063 194.421C125.29 192.799 124.404 190.678 124.404 188.056C124.404 185.878 124.993 183.978 126.171 182.357C127.361 180.723 128.957 179.456 130.958 178.557C132.972 177.645 135.22 177.189 137.703 177.189C140.21 177.189 142.44 177.639 144.39 178.538C146.341 179.424 147.886 180.64 149.026 182.186C150.178 183.731 150.786 185.485 150.85 187.448H146.29ZM173.263 204.471H178.431L182.763 210.17L183.902 211.69L190.362 220.278H185.194L180.939 214.578L179.875 213.134L173.263 204.471ZM191.958 197.175C191.958 201.279 191.217 204.826 189.735 207.815C188.253 210.804 186.22 213.109 183.637 214.73C181.053 216.351 178.102 217.162 174.783 217.162C171.465 217.162 168.514 216.351 165.93 214.73C163.346 213.109 161.313 210.804 159.831 207.815C158.349 204.826 157.608 201.279 157.608 197.175C157.608 193.072 158.349 189.525 159.831 186.536C161.313 183.547 163.346 181.242 165.93 179.621C168.514 178 171.465 177.189 174.783 177.189C178.102 177.189 181.053 178 183.637 179.621C186.22 181.242 188.253 183.547 189.735 186.536C191.217 189.525 191.958 193.072 191.958 197.175ZM187.398 197.175C187.398 193.806 186.835 190.963 185.707 188.645C184.593 186.327 183.079 184.573 181.167 183.382C179.267 182.192 177.139 181.597 174.783 181.597C172.427 181.597 170.293 182.192 168.381 183.382C166.481 184.573 164.967 186.327 163.84 188.645C162.725 190.963 162.168 193.806 162.168 197.175C162.168 200.545 162.725 203.388 163.84 205.706C164.967 208.024 166.481 209.778 168.381 210.968C170.293 212.159 172.427 212.754 174.783 212.754C177.139 212.754 179.267 212.159 181.167 210.968C183.079 209.778 184.593 208.024 185.707 205.706C186.835 203.388 187.398 200.545 187.398 197.175ZM199.88 216.63V177.721H204.592V212.45H222.679V216.63H199.88Z" fill="#1B3668"/>
</svg>
